<svg width="61" height="61" viewBox="0 0 61 61" fill="none" xmlns="http://www.w3.org/2000/svg">
<g clip-path="url(#clip0_2:10)">
<path d="M16.7649 17.6723L18.4995 18.8287C19.0767 19.2135 19.31 19.9472 19.0609 20.5947L17.1254 25.627C16.9615 26.0531 17.003 26.5308 17.2378 26.9222L17.8428 27.9304C18.1929 28.5139 18.101 29.2606 17.6198 29.7418L12.0295 35.3321C11.7682 35.5934 11.6139 35.9428 11.5968 36.3119L11.4072 40.3964C12.6071 42.7083 14.2517 44.8491 16.3491 46.6874C24.4105 53.7522 36.6896 53.7266 44.7165 46.6227C54.0831 38.333 54.4106 24.005 45.6987 15.2931C37.3893 6.98366 23.9736 6.90313 15.5585 15.0408L16.1807 16.9073C16.2849 17.2202 16.4905 17.4894 16.7649 17.6723Z" fill="#FFE6A1"/>
<path d="M36.2633 15.294C36.3556 15.3863 36.4412 15.4825 36.5314 15.576C37.7536 15.5059 38.9991 15.9329 39.9329 16.8667C41.3083 18.2421 41.5901 20.2924 40.7878 21.9496C41.9246 24.5754 42.5138 27.38 42.5533 30.1926C42.8341 30.3433 43.1035 30.522 43.3405 30.759C44.6434 32.0618 44.6434 34.1742 43.3405 35.4771C42.8855 35.9321 42.3294 36.2183 41.7459 36.3554C41.7333 36.4 41.7226 36.4447 41.7098 36.4893C43.2353 38.2366 43.1702 40.8896 41.5056 42.5541C40.5246 43.5351 39.1997 43.9615 37.919 43.8346C37.4078 44.4791 36.8592 45.1037 36.2633 45.6996C33.2733 48.6896 29.6206 50.6089 25.7787 51.4693C32.7253 53.0251 40.2933 51.1058 45.6995 45.6995C54.0958 37.3032 54.0958 23.6902 45.6995 15.2939C40.2933 9.88766 32.7253 7.96837 25.7786 9.5241C29.6206 10.3845 33.2732 12.3039 36.2633 15.294Z" fill="#FFD796"/>
<path d="M31.2831 36.5254C30.5592 35.8016 29.3857 35.8016 28.6619 36.5254C27.9381 37.2492 27.9381 38.4227 28.6619 39.1466C29.3857 39.8704 30.5592 39.8704 31.2831 39.1466C32.0069 38.4227 32.0069 37.2492 31.2831 36.5254Z" fill="#FFD796"/>
<path d="M26.0407 13.9833C25.3169 13.2595 24.1433 13.2595 23.4195 13.9833C22.6957 14.7072 22.6957 15.8807 23.4195 16.6045C24.1433 17.3283 25.3169 17.3283 26.0407 16.6045C26.7645 15.8807 26.7645 14.7072 26.0407 13.9833Z" fill="#FFD796"/>
<path d="M37.9671 25.9097C37.4604 25.403 36.639 25.403 36.1323 25.9097C35.6256 26.4163 35.6256 27.2378 36.1323 27.7445C36.639 28.2511 37.4604 28.2511 37.9671 27.7445C38.4737 27.2378 38.4737 26.4163 37.9671 25.9097Z" fill="#FFD796"/>
<path d="M22.5021 27.2203C21.9954 26.7136 21.174 26.7136 20.6673 27.2203C20.1607 27.7269 20.1607 28.5484 20.6673 29.055C21.174 29.5617 21.9954 29.5617 22.5021 29.055C23.0088 28.5484 23.0088 27.7269 22.5021 27.2203Z" fill="#FFD796"/>
<path d="M18.0461 39.0155C17.5395 38.5088 16.718 38.5088 16.2113 39.0155C15.7047 39.5222 15.7047 40.3436 16.2113 40.8503C16.718 41.3569 17.5395 41.3569 18.0461 40.8503C18.5528 40.3436 18.5528 39.5222 18.0461 39.0155Z" fill="#FFD796"/>
<path d="M29.5604 32.9589L31.1765 32.5548C32.1425 32.3134 32.6006 31.2072 32.0883 30.3535L30.7354 28.0986C30.314 27.3964 29.4032 27.1686 28.701 27.59L27.6692 28.2091C27.4605 28.3344 27.2859 28.509 27.1606 28.7177L26.506 29.8087C26.0987 30.4874 26.2964 31.3663 26.9549 31.8053L28.3782 32.7542C28.7259 32.9858 29.155 33.0601 29.5604 32.9589Z" fill="#B97850"/>
<path d="M33.0246 23.4429L34.71 23.0215C35.5479 22.812 36.0302 21.9335 35.7571 21.1142L34.751 18.096C34.4511 17.1961 33.3949 16.8054 32.5815 17.2934L31.5452 17.9152L30.3339 18.6421C29.58 19.0944 29.383 20.0997 29.9106 20.8032L31.4788 22.8943C31.8366 23.3714 32.4459 23.5876 33.0246 23.4429Z" fill="#B97850"/>
<path d="M37.8012 40.728L39.8582 40.2137C40.5183 40.0487 40.9813 39.4556 40.9814 38.7752L40.9815 36.3472C40.9815 35.4634 40.2133 34.7759 39.3349 34.8735L36.9932 35.1337C36.5333 35.1848 36.1236 35.4477 35.8856 35.8446L35.1735 37.0314C34.8786 37.5228 34.8933 38.1399 35.2111 38.6168L36.208 40.112C36.5555 40.6334 37.1933 40.88 37.8012 40.728Z" fill="#B97850"/>
<path d="M25.0203 44.9717L26.6065 44.5752C27.5268 44.3451 27.9973 43.322 27.5732 42.4735L26.7127 40.7525C26.4614 40.2503 25.9481 39.933 25.3864 39.9329L23.9969 39.9329C23.4761 39.9329 22.9934 40.2062 22.7255 40.6528L22.1804 41.5613C21.8302 42.1448 21.9222 42.8917 22.4033 43.3728L23.6123 44.5818C23.9805 44.9499 24.5151 45.098 25.0203 44.9717Z" fill="#B97850"/>
<path d="M20.4611 24.2059L21.6748 24.2059C22.4936 24.2059 23.1575 23.5421 23.1575 22.7232L23.1575 22.1292C23.1575 21.4909 22.7492 20.9244 22.1437 20.7225L19.5678 19.8639C18.9085 19.6441 18.185 19.9117 17.8274 20.5076L17.5941 20.8965C17.1868 21.5752 17.3845 22.4541 18.043 22.8931L19.6385 23.9568C19.8821 24.1193 20.1683 24.2059 20.4611 24.2059Z" fill="#B97850"/>
<path d="M16.8761 35.5879L18.5009 35.3557C19.0976 35.2705 19.5835 34.8323 19.7297 34.2475L20.1592 32.5295C20.3645 31.7081 19.8416 30.8819 19.0115 30.7159L16.8311 30.2798C15.9963 30.1128 15.1928 30.6814 15.0724 31.524L14.8353 33.1835C14.7927 33.4821 14.842 33.7866 14.977 34.0563L15.3403 34.7831C15.6256 35.3541 16.2443 35.6782 16.8761 35.5879Z" fill="#B97850"/>
<path d="M42.4126 27.9954L43.9529 27.8243C44.9418 27.7144 45.544 26.6811 45.1521 25.7664L44.6003 24.479C44.4503 24.129 44.1715 23.8502 43.8215 23.7002L42.3767 23.0811C41.5111 22.71 40.5233 23.2296 40.3385 24.1531L40.2499 24.5962C40.1993 24.8494 40.2157 25.1111 40.2972 25.3559L40.8421 26.9905C41.0633 27.654 41.7178 28.0726 42.4126 27.9954Z" fill="#B97850"/>
<path d="M39.5559 35.1708L39.5559 37.5987C39.5559 38.279 39.0929 38.8722 38.4328 39.0371L36.3758 39.5514C36.2004 39.5952 36.0244 39.5973 35.8518 39.5777L36.208 40.1118C36.5556 40.6331 37.1934 40.8798 37.8013 40.7279L39.8583 40.2136C40.5184 40.0485 40.9814 39.4555 40.9815 38.7751L40.9815 36.3471C40.9815 35.528 40.3197 34.8859 39.5238 34.8729C39.5434 34.9693 39.556 35.0683 39.5559 35.1708Z" fill="#A5694B"/>
<path d="M25.2894 40.0757L26.1499 41.7967C26.5741 42.6451 26.1036 43.6683 25.1833 43.8983L23.5971 44.2949C23.5164 44.3151 23.4349 44.3167 23.3536 44.323L23.6124 44.5818C23.9807 44.9501 24.5152 45.0981 25.0205 44.9718L26.6067 44.5753C27.527 44.3453 27.9976 43.3222 27.5733 42.4737L26.7128 40.7527C26.4616 40.2504 25.9482 39.9331 25.3866 39.933L25.1912 39.933C25.223 39.9815 25.263 40.023 25.2894 40.0757Z" fill="#A5694B"/>
<path d="M29.4391 27.4053L30.7921 29.6601C31.3043 30.514 30.8463 31.6201 29.8803 31.8615L28.2641 32.2655C28.0717 32.3136 27.8744 32.3193 27.6824 32.2902L28.3783 32.754C28.7258 32.9858 29.1552 33.0601 29.5605 32.9587L31.1766 32.5547C32.1426 32.3132 32.6007 31.2071 32.0884 30.3534L30.7355 28.0985C30.4505 27.6234 29.9414 27.3724 29.4247 27.3857C29.4289 27.3928 29.4349 27.3981 29.4391 27.4053Z" fill="#A5694B"/>
<path d="M19.0891 31.6408L18.6597 33.3588C18.5135 33.9436 18.0277 34.3817 17.4308 34.4671L15.8062 34.6992C15.6282 34.7246 15.4538 34.7097 15.2851 34.6731L15.3402 34.7832C15.6257 35.3541 16.2444 35.6783 16.8762 35.588L18.5008 35.3559C19.0976 35.2706 19.5834 34.8325 19.7296 34.2476L20.1591 32.5296C20.3637 31.711 19.8446 30.8884 19.0194 30.7185C19.1358 31.0008 19.1692 31.3205 19.0891 31.6408Z" fill="#A5694B"/>
<path d="M22.2463 21.3576C22.2463 22.1765 21.5825 22.8403 20.7635 22.8403L19.5498 22.8403C19.2571 22.8403 18.9709 22.7538 18.7273 22.5913L17.3844 21.696C17.3962 22.163 17.627 22.616 18.043 22.8933L19.6385 23.9569C19.8821 24.1193 20.1683 24.2059 20.461 24.206L21.6747 24.206C22.4936 24.2059 23.1574 23.5421 23.1575 22.7232L23.1575 22.1293C23.1575 21.5305 22.7906 21.0067 22.2464 20.776L22.2463 21.3576Z" fill="#A5694B"/>
<path d="M34.3703 19.9033C34.6434 20.7226 34.1612 21.6012 33.3232 21.8107L31.6378 22.2319C31.4168 22.2871 31.195 22.2746 30.9809 22.2303L31.4787 22.894C31.8366 23.3713 32.4458 23.5875 33.0245 23.4428L34.7099 23.0215C35.5479 22.812 36.0301 21.9335 35.757 21.1141L34.751 18.0959C34.5505 17.4944 34.0113 17.1284 33.4334 17.0923L34.3703 19.9033Z" fill="#A5694B"/>
<path d="M43.3766 23.6058L43.9284 24.8933C44.3203 25.8077 43.7181 26.8412 42.7292 26.9511L41.1889 27.1223C41.0911 27.1331 40.9948 27.1318 40.8997 27.1237C41.1602 27.7073 41.7665 28.0673 42.4126 27.9955L43.953 27.8243C44.9418 27.7145 45.544 26.6811 45.1521 25.7665L44.6003 24.479C44.4503 24.129 44.1715 23.8502 43.8215 23.7003L43.308 23.4802C43.331 23.5221 43.3577 23.5616 43.3766 23.6058Z" fill="#A5694B"/>
<path d="M47.7965 35.216C47.8751 35.2946 47.9374 35.3926 47.9752 35.5052C48.1047 35.8938 47.8949 36.3136 47.5063 36.443L45.9335 36.9672C45.5449 37.0967 45.127 36.8866 44.9957 36.4983C44.8663 36.1097 45.076 35.69 45.4646 35.5605L47.0373 35.0363C47.313 34.9444 47.604 35.0235 47.7965 35.216Z" fill="#C98850"/>
<path d="M45.1753 18.9636L45.6996 19.4879C45.9891 19.7774 45.9894 20.2466 45.6996 20.5364C45.4098 20.8262 44.9405 20.8259 44.651 20.5364L44.1268 20.0122C43.8373 19.7226 43.837 19.2534 44.1268 18.9636C44.4166 18.6738 44.8858 18.6741 45.1753 18.9636Z" fill="#925F4A"/>
<path d="M37.3123 31.0215C37.3908 31.1001 37.4531 31.1981 37.4909 31.3107C37.6203 31.6993 37.4105 32.1191 37.022 32.2485L35.4493 32.7727C35.0615 32.9019 34.6429 32.6923 34.5114 32.3038C34.382 31.9152 34.5917 31.4955 34.9803 31.366L36.5531 30.8418C36.8287 30.7499 37.1198 30.829 37.3123 31.0215Z" fill="#C98850"/>
<path d="M32.0699 42.5546C32.1485 42.6332 32.2108 42.7312 32.2485 42.8438L32.7727 44.4165C32.9022 44.8052 32.6924 45.2249 32.3038 45.3544C31.916 45.4836 31.4967 45.2743 31.366 44.8855L30.8417 43.3128C30.7123 42.9242 30.922 42.5044 31.3107 42.375C31.5863 42.283 31.8774 42.3621 32.0699 42.5546Z" fill="#925F4A"/>
<path d="M18.4392 43.6026L19.4877 44.6511C19.7772 44.9406 19.7775 45.4098 19.4877 45.6996C19.1979 45.9894 18.7287 45.9891 18.4392 45.6996L17.3907 44.6511C17.1012 44.3616 17.1009 43.8924 17.3907 43.6026C17.6805 43.3128 18.1497 43.3131 18.4392 43.6026Z" fill="#925F4A"/>
<path d="M24.2053 33.6416C24.3978 33.8342 24.4769 34.1251 24.385 34.4008L23.8608 35.9735C23.7314 36.3622 23.3115 36.572 22.923 36.4424C22.5344 36.3119 22.3248 35.8924 22.4541 35.5046L22.9783 33.9319C23.1077 33.5433 23.5276 33.3334 23.9161 33.463C24.0288 33.5009 24.1267 33.5631 24.2053 33.6416Z" fill="#C98850"/>
<path d="M41.1592 45.4615C41.195 45.5667 41.2074 45.6822 41.1916 45.8C41.1362 46.2059 40.7623 46.4896 40.3564 46.434L38.7139 46.2092C38.3082 46.1539 38.0251 45.7799 38.0799 45.374C38.1354 44.9681 38.5093 44.6844 38.9151 44.74L40.5575 44.9648C40.8455 45.0043 41.0716 45.2038 41.1592 45.4615Z" fill="#925F4A"/>
<path d="M27.3513 20.012C27.4854 20.1462 27.5684 20.3315 27.5683 20.5362L27.5683 22.6332C27.5683 23.0427 27.2366 23.3745 26.827 23.3745C26.4175 23.3745 26.0857 23.0427 26.0857 22.6332L26.0857 20.5362C26.0857 20.1267 26.4175 19.7949 26.827 19.7949C27.0319 19.795 27.2172 19.8779 27.3513 20.012Z" fill="#925F4A"/>
<path d="M31.5452 13.7212C31.6793 13.8554 31.7623 14.0407 31.7622 14.2454C31.7622 14.6549 31.4304 14.9867 31.0209 14.9867L29.9724 14.9867C29.5629 14.9867 29.2311 14.6549 29.2311 14.2454C29.2311 13.8359 29.5629 13.5041 29.9724 13.5041L31.0209 13.5041C31.2257 13.5041 31.411 13.587 31.5452 13.7212Z" fill="#C98850"/>
<path d="M8.47885 34.6906L9.80149 33.368C10.1724 32.997 10.0514 32.3689 9.56929 32.1623L7.3675 31.2187C7.08886 31.0993 6.76556 31.1615 6.55124 31.3759L5.85767 32.0694C5.56816 32.3589 5.56816 32.8284 5.85767 33.118L7.43039 34.6907C7.71984 34.9801 8.18934 34.9801 8.47885 34.6906Z" fill="#FFE6A1"/>
<path d="M11.4909 29.4369L14.1673 27.4296C14.7968 26.9574 14.9479 26.0756 14.5114 25.4209L13.7433 24.2689C13.41 23.7688 12.8079 23.5195 12.2187 23.6374L11.316 23.8179C10.8484 23.9115 10.4543 24.2241 10.257 24.6583L8.43422 28.6685C8.20755 29.1673 8.57206 29.7333 9.11995 29.7333L10.6012 29.7334C10.9221 29.7334 11.2343 29.6293 11.4909 29.4369Z" fill="#FFE6A1"/>
<path d="M11.6418 24.0298L12.4099 25.1819C12.8464 25.8366 12.6953 26.7184 12.0658 27.1905L9.3895 29.1978C9.15077 29.3768 8.86263 29.4701 8.5657 29.4837C8.70081 29.6331 8.89268 29.7334 9.11983 29.7335L10.6012 29.7336C10.922 29.7336 11.2343 29.6295 11.4908 29.437L14.1671 27.4297C14.7967 26.9575 14.9477 26.0757 14.5112 25.4211L13.7431 24.269C13.4098 23.7691 12.8078 23.5196 12.2185 23.6375L11.4289 23.7954C11.5047 23.8682 11.5819 23.9399 11.6418 24.0298Z" fill="#FFD796"/>
<path d="M7.47232 32.1624C7.95441 32.369 8.07538 32.9972 7.70452 33.368L6.90613 34.1664L7.43039 34.6907C7.7199 34.9802 8.1894 34.9802 8.47891 34.6907L9.80155 33.368C10.1725 32.9971 10.0515 32.369 9.56935 32.1624L7.36756 31.2187C7.08892 31.0994 6.76569 31.1615 6.5513 31.3759L6.27712 31.6501L7.47232 32.1624Z" fill="#FFD796"/>
<path d="M13.8841 21.4234L14.8137 21.1135C15.0351 21.0397 15.2088 20.866 15.2826 20.6447L15.4241 20.2204C15.5651 19.7973 15.3035 19.3464 14.8662 19.2589L13.4577 18.9772C13.2146 18.9286 12.9633 19.0047 12.7881 19.1799L12.2233 19.7447C11.8655 20.1025 11.9633 20.7058 12.416 20.932L13.3182 21.3832C13.4939 21.4711 13.6975 21.4856 13.8841 21.4234Z" fill="#FFD796"/>
</g>
<defs>
<clipPath id="clip0_2:10">
<rect width="43" height="43" fill="white" transform="translate(30.5 60.9056) rotate(-135)"/>
</clipPath>
</defs>
</svg>
