<svg width="129" height="129" viewBox="0 0 129 129" fill="none" xmlns="http://www.w3.org/2000/svg">
<path d="M120.848 62.575L114.715 63.8015C112.675 64.2097 110.623 63.1482 109.778 61.2462L103.209 46.4652C102.653 45.2137 101.551 44.2885 100.223 43.9562L96.8007 43.1008C94.8204 42.6057 93.4314 40.8267 93.4314 38.7854L93.4314 15.0675C93.4314 13.9592 93.0174 12.8906 92.2709 12.0713L84.0083 3.0045C76.5588 0.645467 68.5286 -0.406941 60.1799 0.142821C28.0924 2.25671 2.09863 28.3591 0.140706 60.4561C-2.14375 97.911 27.556 129 64.5172 129C99.7713 129 128.401 100.712 128.99 65.5982L123.71 62.9585C122.825 62.5158 121.818 62.381 120.848 62.575Z" fill="#FFE6A1"/>
<path d="M84.531 108.983C84.1395 108.983 83.7537 108.96 83.364 108.953C80.92 111.695 77.372 113.431 73.4103 113.431C67.5751 113.431 62.6277 109.679 60.8144 104.462C52.8328 101.303 45.6335 96.6036 39.5831 90.721C38.6677 90.9969 37.7171 91.1894 36.7118 91.1894C31.1842 91.1894 26.7032 86.7084 26.7032 81.1808C26.7032 79.2503 27.2757 77.4637 28.2225 75.9349C28.1547 75.8137 28.0824 75.696 28.0151 75.5743C21.0726 75.1037 15.5828 69.3377 15.5828 62.2757C15.5828 58.1137 17.489 54.3987 20.4749 51.9512C20.192 49.4995 20.031 47.0107 20.031 44.4826C20.031 31.797 23.708 19.9771 30.0328 10.0018C11.9965 21.4374 0.0138245 41.5632 0.0138245 64.5C0.0138245 100.122 28.8914 129 64.5138 129C87.4506 129 107.576 117.017 119.012 98.981C109.037 105.306 97.2168 108.983 84.531 108.983Z" fill="#FFD796"/>
<path d="M50.0571 53.3793C53.128 53.3793 55.6174 50.8898 55.6174 47.8189C55.6174 44.748 53.128 42.2586 50.0571 42.2586C46.9862 42.2586 44.4967 44.748 44.4967 47.8189C44.4967 50.8898 46.9862 53.3793 50.0571 53.3793Z" fill="#FFD796"/>
<path d="M108.997 90.0775C112.068 90.0775 114.557 87.588 114.557 84.5171C114.557 81.4462 112.068 78.9568 108.997 78.9568C105.926 78.9568 103.436 81.4462 103.436 84.5171C103.436 87.588 105.926 90.0775 108.997 90.0775Z" fill="#FFD796"/>
<path d="M58.3974 90.0775C60.547 90.0775 62.2896 88.3349 62.2896 86.1853C62.2896 84.0357 60.547 82.2932 58.3974 82.2932C56.2478 82.2932 54.5052 84.0357 54.5052 86.1853C54.5052 88.3349 56.2478 90.0775 58.3974 90.0775Z" fill="#FFD796"/>
<path d="M88.4234 54.4912C90.573 54.4912 92.3156 52.7486 92.3156 50.599C92.3156 48.4494 90.573 46.7068 88.4234 46.7068C86.2738 46.7068 84.5312 48.4494 84.5312 50.599C84.5312 52.7486 86.2738 54.4912 88.4234 54.4912Z" fill="#FFD796"/>
<path d="M72.8545 20.0172C75.0041 20.0172 76.7467 18.2746 76.7467 16.125C76.7467 13.9754 75.0041 12.2328 72.8545 12.2328C70.7049 12.2328 68.9623 13.9754 68.9623 16.125C68.9623 18.2746 70.7049 20.0172 72.8545 20.0172Z" fill="#FFD796"/>
<path d="M61.2772 57.2906L58.706 61.5761C57.1691 64.1374 58.5438 67.4556 61.4415 68.18L69.0948 70.0933C71.4783 70.6892 73.8935 69.2402 74.4891 66.8568L75.3647 63.3546C75.5418 62.6461 75.5418 61.9054 75.3647 61.1969L74.439 57.4939C73.8633 55.1903 71.5796 53.7451 69.2513 54.2107L64.2193 55.217C62.9902 55.4632 61.9222 56.216 61.2772 57.2906Z" fill="#B97850"/>
<path d="M74.1149 84.8258L71.4333 89.295C70.1002 91.5169 70.9408 94.4036 73.2582 95.5623L81.7949 99.8306C84.3401 101.103 87.4094 99.6915 88.0998 96.9309L88.9791 93.4136L90.0068 89.302C90.6465 86.7432 88.9317 84.1926 86.3202 83.8195L78.5578 82.7104C76.7866 82.4574 75.0355 83.2912 74.1149 84.8258Z" fill="#B97850"/>
<path d="M27.3149 58.2914L24.0423 63.7459C22.9921 65.4962 23.268 67.7366 24.7112 69.18L29.8616 74.3307C31.7364 76.2055 34.8244 76.0344 36.4807 73.9641L40.8962 68.4446C41.7634 67.3607 42.0748 65.9339 41.738 64.5869L40.7309 60.5587C40.3139 58.8908 38.9735 57.6128 37.288 57.2755L32.0015 56.2183C30.1582 55.8494 28.2822 56.6794 27.3149 58.2914Z" fill="#B97850"/>
<path d="M45.4248 22.1767L42.9012 26.3828C41.4371 28.8229 42.6092 31.9915 45.3089 32.8915L50.7851 34.7169C52.3835 35.2495 54.1456 34.8335 55.3371 33.6423L58.2847 30.6947C59.3895 29.5899 59.8337 27.9862 59.4548 26.4704L58.6838 23.3868C58.1887 21.4062 56.4094 20.0169 54.3681 20.0169L49.2388 20.0169C47.6767 20.0172 46.2288 20.837 45.4248 22.1767Z" fill="#B97850"/>
<path d="M99.1475 56.5559L96.5728 59.1306C94.8358 60.8676 94.8358 63.6842 96.5728 65.4214L97.8328 66.6814C99.1868 68.0354 101.255 68.371 102.968 67.5146L110.253 63.8719C112.118 62.9394 113.085 60.8371 112.58 58.8144L112.25 57.4944C111.674 55.1908 109.39 53.7456 107.062 54.2113L101.421 55.3395C100.559 55.5113 99.7686 55.9349 99.1475 56.5559Z" fill="#B97850"/>
<path d="M82.6075 24.8063L79.6533 28.7453C78.5682 30.1921 78.4671 32.1522 79.3976 33.703L82.131 38.2586C83.4376 40.4365 86.2996 41.08 88.4127 39.6713L93.9632 35.9708C96.0882 34.5544 96.5866 31.6436 95.0545 29.6007L92.0371 25.5775C91.4941 24.8537 90.7435 24.3125 89.8851 24.0265L87.5727 23.2555C85.7561 22.6496 83.7561 23.2744 82.6075 24.8063Z" fill="#B97850"/>
<path d="M44.5425 95.0833L41.638 98.714C39.7733 101.045 40.6881 104.514 43.4596 105.623L47.3611 107.184C48.4218 107.608 49.6047 107.608 50.6652 107.184L55.0436 105.432C57.667 104.383 58.6602 101.185 57.093 98.8344L56.3409 97.7064C55.9114 97.0622 55.3215 96.5416 54.6292 96.1952L50.0058 93.8835C48.129 92.9455 45.8526 93.4456 44.5425 95.0833Z" fill="#B97850"/>
<path d="M35.3812 73.8024L30.2308 68.6519C28.7876 67.2087 28.5114 64.9681 29.5618 63.2181L32.8344 57.7635C33.1136 57.2984 33.4825 56.9207 33.8904 56.5962L32.0017 56.2188C30.1584 55.8502 28.2822 56.6801 27.3149 58.2919L24.0423 63.7464C22.9921 65.4967 23.268 67.7371 24.7112 69.1805L29.8616 74.331C31.5994 76.0687 34.3653 76.0268 36.0811 74.366C35.8352 74.203 35.5984 74.0198 35.3812 73.8024Z" fill="#A5694B"/>
<path d="M55.2402 33.1333L49.764 31.3082C47.0646 30.4082 45.892 27.2396 47.3564 24.7995L49.8799 20.5934C50.0082 20.3792 50.1777 20.2031 50.3367 20.0172L49.2387 20.0172C47.6763 20.0172 46.2284 20.837 45.4244 22.1769L42.9008 26.3827C41.4365 28.8229 42.6086 31.9915 45.3085 32.8915L50.7847 34.7169C52.3831 35.2495 54.1452 34.8335 55.3367 33.6423L55.7512 33.2278C55.5809 33.1925 55.408 33.1893 55.2402 33.1333Z" fill="#A5694B"/>
<path d="M73.3153 68.8144L65.6619 66.9011C62.764 66.1765 61.3893 62.8585 62.9265 60.2972L65.4977 56.0117C65.8038 55.5015 66.2104 55.0709 66.6793 54.7255L64.2193 55.2175C62.9905 55.4632 61.922 56.2163 61.2772 57.2911L58.706 61.5766C57.1691 64.1379 58.5438 67.4562 61.4415 68.1805L69.0948 70.0939C70.707 70.497 72.3195 69.9497 73.3876 68.8253C73.3634 68.8192 73.3395 68.8205 73.3153 68.8144Z" fill="#A5694B"/>
<path d="M86.2861 37.8738L83.5526 33.3183C82.6221 31.7675 82.7232 29.8078 83.8083 28.3606L86.7625 24.4218C87.086 23.9902 87.4876 23.6521 87.923 23.3717L87.5725 23.255C85.7559 22.6496 83.7559 23.2744 82.607 24.806L79.6531 28.7448C78.568 30.1918 78.4669 32.1517 79.3974 33.7025L82.1308 38.2581C83.4332 40.4286 86.2795 41.0724 88.3904 39.6824C87.5446 39.3304 86.7958 38.7232 86.2861 37.8738Z" fill="#A5694B"/>
<path d="M101.403 66.3851C99.6655 64.6479 99.6655 61.8316 101.403 60.0943L103.977 57.5196C104.598 56.8988 105.389 56.4753 106.251 56.3032L110.999 55.3536C109.983 54.3881 108.532 53.9167 107.062 54.211L101.421 55.3392C100.559 55.5116 99.7686 55.9348 99.1475 56.5557L96.5728 59.1304C94.8358 60.8676 94.8358 63.6839 96.5728 65.4211L97.8328 66.6812C99.1029 67.9513 100.993 68.2841 102.636 67.6192L101.403 66.3851Z" fill="#A5694B"/>
<path d="M78.7688 95.1891C76.4513 94.0304 75.6106 91.1438 76.9439 88.9218L79.6254 84.4529C79.9772 83.8671 80.4743 83.4229 81.0225 83.0629L78.5584 82.7109C76.7867 82.4577 75.0359 83.2912 74.1152 84.8258L71.4337 89.295C70.1006 91.5169 70.9411 94.4036 73.2586 95.5623L81.7953 99.8306C83.4967 100.681 85.4168 100.314 86.7192 99.1647L78.7688 95.1891Z" fill="#A5694B"/>
<path d="M51.8093 106.44L47.9078 104.879C45.1366 103.771 44.2217 100.301 46.0862 97.9704L48.9907 94.3398C49.1751 94.1092 49.3822 93.9077 49.6009 93.7233C47.8106 93.0377 45.7607 93.5602 44.5425 95.0833L41.638 98.714C39.7733 101.045 40.6881 104.514 43.4596 105.623L47.3611 107.184C48.4218 107.608 49.6047 107.608 50.6652 107.184L52.2215 106.561C52.0837 106.521 51.9433 106.494 51.8093 106.44Z" fill="#A5694B"/>
<path d="M17.8042 91.1874C17.4708 91.1874 17.1307 91.1115 16.8117 90.9528C15.7127 90.4033 15.2673 89.0677 15.817 87.9687L18.0413 83.5204C18.591 82.4214 19.9233 81.9805 21.0254 82.5257C22.1244 83.0755 22.5699 84.4108 22.0201 85.5099L19.7959 89.9581C19.4061 90.7376 18.621 91.1874 17.8042 91.1874Z" fill="#C98850"/>
<path d="M57.8412 120.103H55.617C54.3887 120.103 53.3928 119.109 53.3928 117.879C53.3928 116.65 54.3887 115.655 55.617 115.655H57.8412C59.0695 115.655 60.0655 116.649 60.0655 117.879C60.0655 119.109 59.0695 120.103 57.8412 120.103Z" fill="#925F4A"/>
<path d="M48.9427 77.8447C48.6094 77.8447 48.2693 77.7689 47.9503 77.6101C46.8513 77.0604 46.4058 75.7248 46.9556 74.626L49.1798 70.1778C49.7283 69.081 51.0609 68.6378 52.1639 69.1831C53.263 69.7328 53.7084 71.0682 53.1587 72.1672L50.9344 76.6154C50.5446 77.3952 49.7593 77.8447 48.9427 77.8447Z" fill="#C98850"/>
<path d="M35.5979 42.2586C35.2646 42.2586 34.9244 42.1827 34.6054 42.024L30.1572 39.7998C29.0582 39.25 28.6127 37.9147 29.1625 36.8156C29.711 35.7189 31.0446 35.2734 32.1466 35.8209L36.5949 38.0449C37.6939 38.5947 38.1393 39.93 37.5896 41.0291C37.1998 41.8088 36.4145 42.2586 35.5979 42.2586Z" fill="#925F4A"/>
<path d="M62.2898 11.1205L57.8416 11.1205C56.6133 11.1205 55.6173 10.1257 55.6173 8.89621C55.6173 7.66668 56.6133 6.67197 57.8416 6.67197L62.2898 6.67197C63.5181 6.67197 64.514 7.66668 64.514 8.89621C64.514 10.1257 63.5181 11.1205 62.2898 11.1205Z" fill="#925F4A"/>
<path d="M71.1886 44.4826C70.3717 44.4826 69.5867 44.0331 69.1969 43.2533L66.9727 38.8051C66.4229 37.706 66.8683 36.3702 67.9674 35.8209C69.0686 35.2734 70.4032 35.7189 70.9515 36.8156L73.1757 41.2639C73.7255 42.3629 73.28 43.6988 72.181 44.248C71.8615 44.4067 71.5219 44.4826 71.1886 44.4826Z" fill="#C98850"/>
<path d="M10.1501 55.3735C9.85107 55.2261 9.57972 55.0077 9.36329 54.7242C8.62003 53.7456 8.81126 52.3506 9.7901 51.6076L13.7513 48.6002C14.7291 47.8567 16.1232 48.0497 16.868 49.0271C17.6112 50.0056 17.42 51.4007 16.4412 52.1437L12.4802 55.1508C11.7856 55.6779 10.8826 55.7343 10.1501 55.3735Z" fill="#925F4A"/>
<path d="M93.4277 80.0689C92.8585 80.0689 92.2894 79.8517 91.8553 79.4174L87.407 74.9692C86.5383 74.1004 86.5383 72.6928 87.407 71.824C88.2758 70.9553 89.6834 70.9553 90.5522 71.824L95.0004 76.2723C95.8691 77.141 95.8691 78.5486 95.0004 79.4174C94.5658 79.8517 93.9966 80.0689 93.4277 80.0689Z" fill="#925F4A"/>
<path d="M97.8758 102.31C97.3067 102.31 96.7375 102.093 96.3034 101.659C95.4347 100.79 95.4347 99.3824 96.3034 98.5137L98.5276 96.2894C99.3964 95.4207 100.804 95.4207 101.673 96.2894C102.542 97.1581 102.542 98.5658 101.673 99.4345L99.4485 101.659C99.0139 102.093 98.445 102.31 97.8758 102.31Z" fill="#C98850"/>
<path d="M102.324 8.89645V14.508C102.324 16.0817 103.913 17.1575 105.374 16.573L112.047 13.904C112.891 13.5662 113.445 12.7483 113.445 11.839V8.89645C113.445 7.66818 112.449 6.67221 111.221 6.67221L104.548 6.67221C103.32 6.67221 102.324 7.66818 102.324 8.89645Z" fill="#FFE6A1"/>
<path d="M107.079 26.4309L105.66 36.3664C105.326 38.7035 106.877 40.8945 109.191 41.3573L113.265 42.1719C115.032 42.5256 116.838 41.7773 117.838 40.2775L119.37 37.9796C120.164 36.7892 120.336 35.2898 119.834 33.9504L115.194 21.5767C114.617 20.0378 112.643 19.6103 111.48 20.7725L108.338 23.9146C107.657 24.5951 107.216 25.4782 107.079 26.4309Z" fill="#FFE6A1"/>
<path d="M118.23 38.221L114.156 37.4065C111.841 36.9434 110.291 34.7524 110.625 32.4155L112.044 22.4803C112.171 21.5941 112.584 20.7849 113.186 20.1263C112.582 20.0958 111.962 20.29 111.48 20.7718L108.337 23.9141C107.657 24.5947 107.215 25.4778 107.079 26.4304L105.66 36.3657C105.326 38.703 106.877 40.8937 109.191 41.3566L113.265 42.1712C115.032 42.5244 116.838 41.7766 117.838 40.2767L119.178 38.2666C118.863 38.2729 118.547 38.2848 118.23 38.221Z" fill="#FFD796"/>
<path d="M109.822 12.1245C108.361 12.7088 106.772 11.6329 106.772 10.0595V6.67221H104.548C103.32 6.67221 102.324 7.66818 102.324 8.89645V14.508C102.324 16.0817 103.913 17.1575 105.374 16.573L112.046 13.904C112.891 13.5662 113.445 12.7486 113.445 11.839V10.6757L109.822 12.1245Z" fill="#FFD796"/>
<path d="M119.002 48.5068L117.687 51.1361C117.374 51.7622 117.374 52.4992 117.687 53.1253L118.287 54.3256C118.886 55.5221 120.397 55.9238 121.51 55.1818L125.096 52.7915C125.714 52.3788 126.086 51.6844 126.086 50.9409V48.5446C126.086 47.0265 124.599 45.9545 123.159 46.4347L120.288 47.3916C119.728 47.5778 119.266 47.9789 119.002 48.5068Z" fill="#FFD796"/>
</svg>
